# Pokemon World original procedural low-poly field landmarks
# Regenerate with: python3 tools/generate_landmarks.py
# Coordinates are authored directly in world-scale meters.

o moon-tree-trunk
v 0.306329 0.000000 0.147520
v 0.269570 2.050000 0.129818
v 0.066578 2.050000 0.291698
v 0.306329 0.000000 0.147520
v 0.066578 2.050000 0.291698
v 0.075657 0.000000 0.331475
v 0.000000 0.000000 0.000000
v 0.075657 0.000000 0.331475
v 0.306329 0.000000 0.147520
v 0.000000 2.050000 0.000000
v 0.269570 2.050000 0.129818
v 0.066578 2.050000 0.291698
v 0.075657 0.000000 0.331475
v 0.066578 2.050000 0.291698
v -0.186548 2.050000 0.233924
v 0.075657 0.000000 0.331475
v -0.186548 2.050000 0.233924
v -0.211987 0.000000 0.265823
v 0.000000 0.000000 0.000000
v -0.211987 0.000000 0.265823
v 0.075657 0.000000 0.331475
v 0.000000 2.050000 0.000000
v 0.066578 2.050000 0.291698
v -0.186548 2.050000 0.233924
v -0.211987 0.000000 0.265823
v -0.186548 2.050000 0.233924
v -0.299200 2.050000 0.000000
v -0.211987 0.000000 0.265823
v -0.299200 2.050000 0.000000
v -0.340000 0.000000 0.000000
v 0.000000 0.000000 0.000000
v -0.340000 0.000000 0.000000
v -0.211987 0.000000 0.265823
v 0.000000 2.050000 0.000000
v -0.186548 2.050000 0.233924
v -0.299200 2.050000 0.000000
v -0.340000 0.000000 0.000000
v -0.299200 2.050000 0.000000
v -0.186548 2.050000 -0.233924
v -0.340000 0.000000 0.000000
v -0.186548 2.050000 -0.233924
v -0.211987 0.000000 -0.265823
v 0.000000 0.000000 0.000000
v -0.211987 0.000000 -0.265823
v -0.340000 0.000000 0.000000
v 0.000000 2.050000 0.000000
v -0.299200 2.050000 0.000000
v -0.186548 2.050000 -0.233924
v -0.211987 0.000000 -0.265823
v -0.186548 2.050000 -0.233924
v 0.066578 2.050000 -0.291698
v -0.211987 0.000000 -0.265823
v 0.066578 2.050000 -0.291698
v 0.075657 0.000000 -0.331475
v 0.000000 0.000000 0.000000
v 0.075657 0.000000 -0.331475
v -0.211987 0.000000 -0.265823
v 0.000000 2.050000 0.000000
v -0.186548 2.050000 -0.233924
v 0.066578 2.050000 -0.291698
v 0.075657 0.000000 -0.331475
v 0.066578 2.050000 -0.291698
v 0.269570 2.050000 -0.129818
v 0.075657 0.000000 -0.331475
v 0.269570 2.050000 -0.129818
v 0.306329 0.000000 -0.147520
v 0.000000 0.000000 0.000000
v 0.306329 0.000000 -0.147520
v 0.075657 0.000000 -0.331475
v 0.000000 2.050000 0.000000
v 0.066578 2.050000 -0.291698
v 0.269570 2.050000 -0.129818
v 0.306329 0.000000 -0.147520
v 0.269570 2.050000 -0.129818
v 0.269570 2.050000 0.129818
v 0.306329 0.000000 -0.147520
v 0.269570 2.050000 0.129818
v 0.306329 0.000000 0.147520
v 0.000000 0.000000 0.000000
v 0.306329 0.000000 0.147520
v 0.306329 0.000000 -0.147520
v 0.000000 2.050000 0.000000
v 0.269570 2.050000 -0.129818
v 0.269570 2.050000 0.129818
vn 0.623390 0.017929 0.781706
vn 0.623390 0.017929 0.781706
vn 0.623390 0.017929 0.781706
vn 0.623390 0.017929 0.781706
vn 0.623390 0.017929 0.781706
vn 0.623390 0.017929 0.781706
vn 0.000000 1.000000 0.000000
vn 0.000000 1.000000 0.000000
vn 0.000000 1.000000 0.000000
vn 0.000000 -1.000000 0.000000
vn 0.000000 -1.000000 0.000000
vn 0.000000 -1.000000 0.000000
vn -0.222485 0.017929 0.974771
vn -0.222485 0.017929 0.974771
vn -0.222485 0.017929 0.974771
vn -0.222485 0.017929 0.974771
vn -0.222485 0.017929 0.974771
vn -0.222485 0.017929 0.974771
vn 0.000000 1.000000 -0.000000
vn 0.000000 1.000000 -0.000000
vn 0.000000 1.000000 -0.000000
vn 0.000000 -1.000000 0.000000
vn 0.000000 -1.000000 0.000000
vn 0.000000 -1.000000 0.000000
vn -0.900824 0.017929 0.433814
vn -0.900824 0.017929 0.433814
vn -0.900824 0.017929 0.433814
vn -0.900824 0.017929 0.433814
vn -0.900824 0.017929 0.433814
vn -0.900824 0.017929 0.433814
vn 0.000000 1.000000 0.000000
vn 0.000000 1.000000 0.000000
vn 0.000000 1.000000 0.000000
vn 0.000000 -1.000000 0.000000
vn 0.000000 -1.000000 0.000000
vn 0.000000 -1.000000 0.000000
vn -0.900824 0.017929 -0.433814
vn -0.900824 0.017929 -0.433814
vn -0.900824 0.017929 -0.433814
vn -0.900824 0.017929 -0.433814
vn -0.900824 0.017929 -0.433814
vn -0.900824 0.017929 -0.433814
vn 0.000000 1.000000 0.000000
vn 0.000000 1.000000 0.000000
vn 0.000000 1.000000 0.000000
vn -0.000000 -1.000000 0.000000
vn -0.000000 -1.000000 0.000000
vn -0.000000 -1.000000 0.000000
vn -0.222485 0.017929 -0.974771
vn -0.222485 0.017929 -0.974771
vn -0.222485 0.017929 -0.974771
vn -0.222485 0.017929 -0.974771
vn -0.222485 0.017929 -0.974771
vn -0.222485 0.017929 -0.974771
vn 0.000000 1.000000 0.000000
vn 0.000000 1.000000 0.000000
vn 0.000000 1.000000 0.000000
vn 0.000000 -1.000000 -0.000000
vn 0.000000 -1.000000 -0.000000
vn 0.000000 -1.000000 -0.000000
vn 0.623390 0.017929 -0.781706
vn 0.623390 0.017929 -0.781706
vn 0.623390 0.017929 -0.781706
vn 0.623390 0.017929 -0.781706
vn 0.623390 0.017929 -0.781706
vn 0.623390 0.017929 -0.781706
vn 0.000000 1.000000 0.000000
vn 0.000000 1.000000 0.000000
vn 0.000000 1.000000 0.000000
vn 0.000000 -1.000000 0.000000
vn 0.000000 -1.000000 0.000000
vn 0.000000 -1.000000 0.000000
vn 0.999839 0.017929 -0.000000
vn 0.999839 0.017929 -0.000000
vn 0.999839 0.017929 -0.000000
vn 0.999839 0.017929 -0.000000
vn 0.999839 0.017929 -0.000000
vn 0.999839 0.017929 -0.000000
vn -0.000000 1.000000 0.000000
vn -0.000000 1.000000 0.000000
vn -0.000000 1.000000 0.000000
vn 0.000000 -1.000000 0.000000
vn 0.000000 -1.000000 0.000000
vn 0.000000 -1.000000 0.000000
f 1//1 2//2 3//3
f 4//4 5//5 6//6
f 7//7 8//8 9//9
f 10//10 11//11 12//12
f 13//13 14//14 15//15
f 16//16 17//17 18//18
f 19//19 20//20 21//21
f 22//22 23//23 24//24
f 25//25 26//26 27//27
f 28//28 29//29 30//30
f 31//31 32//32 33//33
f 34//34 35//35 36//36
f 37//37 38//38 39//39
f 40//40 41//41 42//42
f 43//43 44//44 45//45
f 46//46 47//47 48//48
f 49//49 50//50 51//51
f 52//52 53//53 54//54
f 55//55 56//56 57//57
f 58//58 59//59 60//60
f 61//61 62//62 63//63
f 64//64 65//65 66//66
f 67//67 68//68 69//69
f 70//70 71//71 72//72
f 73//73 74//74 75//75
f 76//76 77//77 78//78
f 79//79 80//80 81//81
f 82//82 83//83 84//84

o moon-tree-canopy-low
v 1.616789 1.150000 0.669696
v 0.000000 3.650000 0.000000
v 0.669696 1.150000 1.616789
v 0.000000 1.150000 0.000000
v 0.669696 1.150000 1.616789
v 1.616789 1.150000 0.669696
v 0.669696 1.150000 1.616789
v 0.000000 3.650000 0.000000
v -0.669696 1.150000 1.616789
v 0.000000 1.150000 0.000000
v -0.669696 1.150000 1.616789
v 0.669696 1.150000 1.616789
v -0.669696 1.150000 1.616789
v 0.000000 3.650000 0.000000
v -1.616789 1.150000 0.669696
v 0.000000 1.150000 0.000000
v -1.616789 1.150000 0.669696
v -0.669696 1.150000 1.616789
v -1.616789 1.150000 0.669696
v 0.000000 3.650000 0.000000
v -1.616789 1.150000 -0.669696
v 0.000000 1.150000 0.000000
v -1.616789 1.150000 -0.669696
v -1.616789 1.150000 0.669696
v -1.616789 1.150000 -0.669696
v 0.000000 3.650000 0.000000
v -0.669696 1.150000 -1.616789
v 0.000000 1.150000 0.000000
v -0.669696 1.150000 -1.616789
v -1.616789 1.150000 -0.669696
v -0.669696 1.150000 -1.616789
v 0.000000 3.650000 0.000000
v 0.669696 1.150000 -1.616789
v 0.000000 1.150000 0.000000
v 0.669696 1.150000 -1.616789
v -0.669696 1.150000 -1.616789
v 0.669696 1.150000 -1.616789
v 0.000000 3.650000 0.000000
v 1.616789 1.150000 -0.669696
v 0.000000 1.150000 0.000000
v 1.616789 1.150000 -0.669696
v 0.669696 1.150000 -1.616789
v 1.616789 1.150000 -0.669696
v 0.000000 3.650000 0.000000
v 1.616789 1.150000 0.669696
v 0.000000 1.150000 0.000000
v 1.616789 1.150000 0.669696
v 1.616789 1.150000 -0.669696
vn 0.593759 0.543048 0.593759
vn 0.593759 0.543048 0.593759
vn 0.593759 0.543048 0.593759
vn 0.000000 1.000000 0.000000
vn 0.000000 1.000000 0.000000
vn 0.000000 1.000000 0.000000
vn 0.000000 0.543048 0.839702
vn 0.000000 0.543048 0.839702
vn 0.000000 0.543048 0.839702
vn 0.000000 1.000000 -0.000000
vn 0.000000 1.000000 -0.000000
vn 0.000000 1.000000 -0.000000
vn -0.593759 0.543048 0.593759
vn -0.593759 0.543048 0.593759
vn -0.593759 0.543048 0.593759
vn 0.000000 1.000000 0.000000
vn 0.000000 1.000000 0.000000
vn 0.000000 1.000000 0.000000
vn -0.839702 0.543048 0.000000
vn -0.839702 0.543048 0.000000
vn -0.839702 0.543048 0.000000
vn 0.000000 1.000000 0.000000
vn 0.000000 1.000000 0.000000
vn 0.000000 1.000000 0.000000
vn -0.593759 0.543048 -0.593759
vn -0.593759 0.543048 -0.593759
vn -0.593759 0.543048 -0.593759
vn 0.000000 1.000000 0.000000
vn 0.000000 1.000000 0.000000
vn 0.000000 1.000000 0.000000
vn 0.000000 0.543048 -0.839702
vn 0.000000 0.543048 -0.839702
vn 0.000000 0.543048 -0.839702
vn 0.000000 1.000000 0.000000
vn 0.000000 1.000000 0.000000
vn 0.000000 1.000000 0.000000
vn 0.593759 0.543048 -0.593759
vn 0.593759 0.543048 -0.593759
vn 0.593759 0.543048 -0.593759
vn 0.000000 1.000000 0.000000
vn 0.000000 1.000000 0.000000
vn 0.000000 1.000000 0.000000
vn 0.839702 0.543048 -0.000000
vn 0.839702 0.543048 -0.000000
vn 0.839702 0.543048 -0.000000
vn -0.000000 1.000000 0.000000
vn -0.000000 1.000000 0.000000
vn -0.000000 1.000000 0.000000
f 85//85 86//86 87//87
f 88//88 89//89 90//90
f 91//91 92//92 93//93
f 94//94 95//95 96//96
f 97//97 98//98 99//99
f 100//100 101//101 102//102
f 103//103 104//104 105//105
f 106//106 107//107 108//108
f 109//109 110//110 111//111
f 112//112 113//113 114//114
f 115//115 116//116 117//117
f 118//118 119//119 120//120
f 121//121 122//122 123//123
f 124//124 125//125 126//126
f 127//127 128//128 129//129
f 130//130 131//131 132//132

o moon-tree-canopy-high
v 1.280000 2.350000 0.000000
v 0.000000 4.750000 0.000000
v 0.905097 2.350000 0.905097
v 0.000000 2.350000 0.000000
v 0.905097 2.350000 0.905097
v 1.280000 2.350000 0.000000
v 0.905097 2.350000 0.905097
v 0.000000 4.750000 0.000000
v 0.000000 2.350000 1.280000
v 0.000000 2.350000 0.000000
v 0.000000 2.350000 1.280000
v 0.905097 2.350000 0.905097
v 0.000000 2.350000 1.280000
v 0.000000 4.750000 0.000000
v -0.905097 2.350000 0.905097
v 0.000000 2.350000 0.000000
v -0.905097 2.350000 0.905097
v 0.000000 2.350000 1.280000
v -0.905097 2.350000 0.905097
v 0.000000 4.750000 0.000000
v -1.280000 2.350000 0.000000
v 0.000000 2.350000 0.000000
v -1.280000 2.350000 0.000000
v -0.905097 2.350000 0.905097
v -1.280000 2.350000 0.000000
v 0.000000 4.750000 0.000000
v -0.905097 2.350000 -0.905097
v 0.000000 2.350000 0.000000
v -0.905097 2.350000 -0.905097
v -1.280000 2.350000 0.000000
v -0.905097 2.350000 -0.905097
v 0.000000 4.750000 0.000000
v -0.000000 2.350000 -1.280000
v 0.000000 2.350000 0.000000
v -0.000000 2.350000 -1.280000
v -0.905097 2.350000 -0.905097
v -0.000000 2.350000 -1.280000
v 0.000000 4.750000 0.000000
v 0.905097 2.350000 -0.905097
v 0.000000 2.350000 0.000000
v 0.905097 2.350000 -0.905097
v -0.000000 2.350000 -1.280000
v 0.905097 2.350000 -0.905097
v 0.000000 4.750000 0.000000
v 1.280000 2.350000 0.000000
v 0.000000 2.350000 0.000000
v 1.280000 2.350000 0.000000
v 0.905097 2.350000 -0.905097
vn 0.828737 0.441993 0.343274
vn 0.828737 0.441993 0.343274
vn 0.828737 0.441993 0.343274
vn 0.000000 1.000000 0.000000
vn 0.000000 1.000000 0.000000
vn 0.000000 1.000000 0.000000
vn 0.343274 0.441993 0.828737
vn 0.343274 0.441993 0.828737
vn 0.343274 0.441993 0.828737
vn 0.000000 1.000000 0.000000
vn 0.000000 1.000000 0.000000
vn 0.000000 1.000000 0.000000
vn -0.343274 0.441993 0.828737
vn -0.343274 0.441993 0.828737
vn -0.343274 0.441993 0.828737
vn 0.000000 1.000000 -0.000000
vn 0.000000 1.000000 -0.000000
vn 0.000000 1.000000 -0.000000
vn -0.828737 0.441993 0.343274
vn -0.828737 0.441993 0.343274
vn -0.828737 0.441993 0.343274
vn 0.000000 1.000000 0.000000
vn 0.000000 1.000000 0.000000
vn 0.000000 1.000000 0.000000
vn -0.828737 0.441993 -0.343274
vn -0.828737 0.441993 -0.343274
vn -0.828737 0.441993 -0.343274
vn 0.000000 1.000000 0.000000
vn 0.000000 1.000000 0.000000
vn 0.000000 1.000000 0.000000
vn -0.343274 0.441993 -0.828737
vn -0.343274 0.441993 -0.828737
vn -0.343274 0.441993 -0.828737
vn 0.000000 1.000000 0.000000
vn 0.000000 1.000000 0.000000
vn 0.000000 1.000000 0.000000
vn 0.343274 0.441993 -0.828737
vn 0.343274 0.441993 -0.828737
vn 0.343274 0.441993 -0.828737
vn 0.000000 1.000000 0.000000
vn 0.000000 1.000000 0.000000
vn 0.000000 1.000000 0.000000
vn 0.828737 0.441993 -0.343274
vn 0.828737 0.441993 -0.343274
vn 0.828737 0.441993 -0.343274
vn -0.000000 1.000000 0.000000
vn -0.000000 1.000000 0.000000
vn -0.000000 1.000000 0.000000
f 133//133 134//134 135//135
f 136//136 137//137 138//138
f 139//139 140//140 141//141
f 142//142 143//143 144//144
f 145//145 146//146 147//147
f 148//148 149//149 150//150
f 151//151 152//152 153//153
f 154//154 155//155 156//156
f 157//157 158//158 159//159
f 160//160 161//161 162//162
f 163//163 164//164 165//165
f 166//166 167//167 168//168
f 169//169 170//170 171//171
f 172//172 173//173 174//174
f 175//175 176//176 177//177
f 178//178 179//179 180//180

o red-spire-rock
v 1.259702 0.000000 0.203290
v 0.400212 4.750000 0.208355
v 0.073817 4.923913 0.377316
v 1.259702 0.000000 0.203290
v 0.073817 4.923913 0.377316
v 0.714654 0.000000 1.268095
v 0.000000 0.000000 0.000000
v 0.714654 0.000000 1.268095
v 1.259702 0.000000 0.203290
v 0.714654 0.000000 1.268095
v 0.073817 4.923913 0.377316
v -0.219461 4.839687 0.258238
v 0.714654 0.000000 1.268095
v -0.219461 4.839687 0.258238
v -0.402530 0.000000 0.995074
v 0.000000 0.000000 0.000000
v -0.402530 0.000000 0.995074
v 0.714654 0.000000 1.268095
v -0.402530 0.000000 0.995074
v -0.219461 4.839687 0.258238
v -0.419872 4.622338 -0.013105
v -0.402530 0.000000 0.995074
v -0.419872 4.622338 -0.013105
v -1.270041 0.000000 0.377336
v 0.000000 0.000000 0.000000
v -1.270041 0.000000 0.377336
v -0.402530 0.000000 0.995074
v -1.270041 0.000000 0.377336
v -0.419872 4.622338 -0.013105
v -0.263417 4.594478 -0.352325
v -1.270041 0.000000 0.377336
v -0.263417 4.594478 -0.352325
v -1.167685 0.000000 -0.814031
v 0.000000 0.000000 0.000000
v -1.167685 0.000000 -0.814031
v -1.270041 0.000000 0.377336
v -1.167685 0.000000 -0.814031
v -0.263417 4.594478 -0.352325
v 0.089106 4.797459 -0.340990
v -1.167685 0.000000 -0.814031
v 0.089106 4.797459 -0.340990
v -0.068268 0.000000 -1.058602
v 0.000000 0.000000 0.000000
v -0.068268 0.000000 -1.058602
v -1.167685 0.000000 -0.814031
v -0.068268 0.000000 -1.058602
v 0.089106 4.797459 -0.340990
v 0.329375 4.929997 -0.146142
v -0.068268 0.000000 -1.058602
v 0.329375 4.929997 -0.146142
v 1.014891 0.000000 -0.922226
v 0.000000 0.000000 0.000000
v 1.014891 0.000000 -0.922226
v -0.068268 0.000000 -1.058602
v 1.014891 0.000000 -0.922226
v 0.329375 4.929997 -0.146142
v 0.400212 4.750000 0.208355
v 1.014891 0.000000 -0.922226
v 0.400212 4.750000 0.208355
v 1.259702 0.000000 0.203290
v 0.000000 0.000000 0.000000
v 1.259702 0.000000 0.203290
v 1.014891 0.000000 -0.922226
vn 0.494732 0.088598 0.864518
vn 0.494732 0.088598 0.864518
vn 0.494732 0.088598 0.864518
vn 0.873159 0.194497 0.446949
vn 0.873159 0.194497 0.446949
vn 0.873159 0.194497 0.446949
vn 0.000000 1.000000 0.000000
vn 0.000000 1.000000 0.000000
vn 0.000000 1.000000 0.000000
vn -0.401318 0.112222 0.909038
vn -0.401318 0.112222 0.909038
vn -0.401318 0.112222 0.909038
vn -0.234528 0.154981 0.959676
vn -0.234528 0.154981 0.959676
vn -0.234528 0.154981 0.959676
vn 0.000000 1.000000 -0.000000
vn 0.000000 1.000000 -0.000000
vn 0.000000 1.000000 -0.000000
vn -0.840223 0.112541 0.530434
vn -0.840223 0.112541 0.530434
vn -0.840223 0.112541 0.530434
vn -0.571318 0.172851 0.802321
vn -0.571318 0.172851 0.802321
vn -0.571318 0.172851 0.802321
vn 0.000000 1.000000 0.000000
vn 0.000000 1.000000 0.000000
vn 0.000000 1.000000 0.000000
vn -0.896402 0.129054 -0.424039
vn -0.896402 0.129054 -0.424039
vn -0.896402 0.129054 -0.424039
vn -0.976090 0.200538 -0.083861
vn -0.976090 0.200538 -0.083861
vn -0.976090 0.200538 -0.083861
vn 0.000000 1.000000 0.000000
vn 0.000000 1.000000 0.000000
vn 0.000000 1.000000 0.000000
vn -0.028822 0.105561 -0.993995
vn -0.028822 0.105561 -0.993995
vn -0.028822 0.105561 -0.993995
vn -0.214645 0.151371 -0.964891
vn -0.214645 0.151371 -0.964891
vn -0.214645 0.151371 -0.964891
vn 0.000000 1.000000 0.000000
vn 0.000000 1.000000 0.000000
vn 0.000000 1.000000 0.000000
vn 0.592823 0.100082 -0.799090
vn 0.592823 0.100082 -0.799090
vn 0.592823 0.100082 -0.799090
vn 0.123079 0.171001 -0.977553
vn 0.123079 0.171001 -0.977553
vn 0.123079 0.171001 -0.977553
vn 0.000000 1.000000 0.000000
vn 0.000000 1.000000 0.000000
vn 0.000000 1.000000 0.000000
vn 0.980936 0.154877 -0.117377
vn 0.980936 0.154877 -0.117377
vn 0.980936 0.154877 -0.117377
vn 0.962190 0.174327 -0.209286
vn 0.962190 0.174327 -0.209286
vn 0.962190 0.174327 -0.209286
vn -0.000000 1.000000 0.000000
vn -0.000000 1.000000 0.000000
vn -0.000000 1.000000 0.000000
f 181//181 182//182 183//183
f 184//184 185//185 186//186
f 187//187 188//188 189//189
f 190//190 191//191 192//192
f 193//193 194//194 195//195
f 196//196 197//197 198//198
f 199//199 200//200 201//201
f 202//202 203//203 204//204
f 205//205 206//206 207//207
f 208//208 209//209 210//210
f 211//211 212//212 213//213
f 214//214 215//215 216//216
f 217//217 218//218 219//219
f 220//220 221//221 222//222
f 223//223 224//224 225//225
f 226//226 227//227 228//228
f 229//229 230//230 231//231
f 232//232 233//233 234//234
f 235//235 236//236 237//237
f 238//238 239//239 240//240
f 241//241 242//242 243//243

o red-spire-crystal
v 0.502295 5.050000 0.290000
v 0.000000 7.150000 0.000000
v 0.000000 5.050000 0.580000
v 0.502295 5.050000 0.290000
v 0.000000 5.050000 0.580000
v 0.000000 4.400000 0.000000
v 0.000000 5.050000 0.580000
v 0.000000 7.150000 0.000000
v -0.502295 5.050000 0.290000
v 0.000000 5.050000 0.580000
v -0.502295 5.050000 0.290000
v 0.000000 4.400000 0.000000
v -0.502295 5.050000 0.290000
v 0.000000 7.150000 0.000000
v -0.502295 5.050000 -0.290000
v -0.502295 5.050000 0.290000
v -0.502295 5.050000 -0.290000
v 0.000000 4.400000 0.000000
v -0.502295 5.050000 -0.290000
v 0.000000 7.150000 0.000000
v -0.000000 5.050000 -0.580000
v -0.502295 5.050000 -0.290000
v -0.000000 5.050000 -0.580000
v 0.000000 4.400000 0.000000
v -0.000000 5.050000 -0.580000
v 0.000000 7.150000 0.000000
v 0.502295 5.050000 -0.290000
v -0.000000 5.050000 -0.580000
v 0.502295 5.050000 -0.290000
v 0.000000 4.400000 0.000000
v 0.502295 5.050000 -0.290000
v 0.000000 7.150000 0.000000
v 0.502295 5.050000 0.290000
v 0.502295 5.050000 -0.290000
v 0.502295 5.050000 0.290000
v 0.000000 4.400000 0.000000
vn 0.486283 0.232626 0.842267
vn 0.486283 0.232626 0.842267
vn 0.486283 0.232626 0.842267
vn 0.395636 -0.611464 0.685262
vn 0.395636 -0.611464 0.685262
vn 0.395636 -0.611464 0.685262
vn -0.486283 0.232626 0.842267
vn -0.486283 0.232626 0.842267
vn -0.486283 0.232626 0.842267
vn -0.395636 -0.611464 0.685262
vn -0.395636 -0.611464 0.685262
vn -0.395636 -0.611464 0.685262
vn -0.972566 0.232626 0.000000
vn -0.972566 0.232626 0.000000
vn -0.972566 0.232626 0.000000
vn -0.791272 -0.611464 0.000000
vn -0.791272 -0.611464 0.000000
vn -0.791272 -0.611464 0.000000
vn -0.486283 0.232626 -0.842267
vn -0.486283 0.232626 -0.842267
vn -0.486283 0.232626 -0.842267
vn -0.395636 -0.611464 -0.685262
vn -0.395636 -0.611464 -0.685262
vn -0.395636 -0.611464 -0.685262
vn 0.486283 0.232626 -0.842267
vn 0.486283 0.232626 -0.842267
vn 0.486283 0.232626 -0.842267
vn 0.395636 -0.611464 -0.685262
vn 0.395636 -0.611464 -0.685262
vn 0.395636 -0.611464 -0.685262
vn 0.972566 0.232626 0.000000
vn 0.972566 0.232626 0.000000
vn 0.972566 0.232626 0.000000
vn 0.791272 -0.611464 0.000000
vn 0.791272 -0.611464 0.000000
vn 0.791272 -0.611464 0.000000
f 244//244 245//245 246//246
f 247//247 248//248 249//249
f 250//250 251//251 252//252
f 253//253 254//254 255//255
f 256//256 257//257 258//258
f 259//259 260//260 261//261
f 262//262 263//263 264//264
f 265//265 266//266 267//267
f 268//268 269//269 270//270
f 271//271 272//272 273//273
f 274//274 275//275 276//276
f 277//277 278//278 279//279
